<mxfile host="app.diagrams.net" agent="Mozilla/5.0 (Windows NT 10.0; Win64; x64) AppleWebKit/537.36 (KHTML, like Gecko) Chrome/139.0.0.0 Safari/537.36" version="28.2.0">
  <diagram name="Page-1" id="fli2pSFZ0N9FOteIHQYy">
    <mxGraphModel dx="1603" dy="811" grid="1" gridSize="10" guides="1" tooltips="1" connect="1" arrows="1" fold="1" page="1" pageScale="1" pageWidth="850" pageHeight="1100" math="0" shadow="0">
      <root>
        <mxCell id="0" />
        <mxCell id="1" parent="0" />
        <mxCell id="ituplTPOn73s7d8Dikhj-2" value="&lt;font style=&quot;color: light-dark(rgb(0, 0, 0), rgb(0, 0, 0));&quot;&gt;START&lt;/font&gt;" style="ellipse;whiteSpace=wrap;html=1;fillColor=light-dark(#FFFFFF,#E5CCFF);" vertex="1" parent="1">
          <mxGeometry x="330" width="150" height="80" as="geometry" />
        </mxCell>
        <mxCell id="ituplTPOn73s7d8Dikhj-3" value="" style="endArrow=classic;html=1;rounded=0;" edge="1" parent="1">
          <mxGeometry width="50" height="50" relative="1" as="geometry">
            <mxPoint x="400" y="80" as="sourcePoint" />
            <mxPoint x="400" y="150" as="targetPoint" />
          </mxGeometry>
        </mxCell>
        <mxCell id="ituplTPOn73s7d8Dikhj-4" value="&lt;font style=&quot;color: light-dark(rgb(0, 0, 0), rgb(0, 0, 0));&quot;&gt;DATA COLLECTION&lt;/font&gt;" style="rounded=0;whiteSpace=wrap;html=1;fillColor=light-dark(#FFFFFF,#FFFF99);" vertex="1" parent="1">
          <mxGeometry x="345" y="150" width="120" height="60" as="geometry" />
        </mxCell>
        <mxCell id="ituplTPOn73s7d8Dikhj-5" value="" style="endArrow=classic;html=1;rounded=0;exitX=0.442;exitY=1.013;exitDx=0;exitDy=0;exitPerimeter=0;" edge="1" parent="1" source="ituplTPOn73s7d8Dikhj-4">
          <mxGeometry width="50" height="50" relative="1" as="geometry">
            <mxPoint x="400" y="220" as="sourcePoint" />
            <mxPoint x="400" y="276.82" as="targetPoint" />
          </mxGeometry>
        </mxCell>
        <mxCell id="ituplTPOn73s7d8Dikhj-6" value="&lt;font style=&quot;color: light-dark(rgb(0, 0, 0), rgb(0, 0, 0));&quot;&gt;DATA PREPROCESSING&lt;/font&gt;" style="rounded=0;whiteSpace=wrap;html=1;fillColor=light-dark(#FFFFFF,#D4E1F5);" vertex="1" parent="1">
          <mxGeometry x="345" y="280" width="120" height="60" as="geometry" />
        </mxCell>
        <mxCell id="ituplTPOn73s7d8Dikhj-7" value="" style="endArrow=classic;html=1;rounded=0;" edge="1" parent="1">
          <mxGeometry width="50" height="50" relative="1" as="geometry">
            <mxPoint x="400" y="344" as="sourcePoint" />
            <mxPoint x="400" y="400" as="targetPoint" />
          </mxGeometry>
        </mxCell>
        <mxCell id="ituplTPOn73s7d8Dikhj-10" value="" style="endArrow=classic;html=1;rounded=0;exitX=0.5;exitY=1;exitDx=0;exitDy=0;" edge="1" parent="1">
          <mxGeometry width="50" height="50" relative="1" as="geometry">
            <mxPoint x="370" y="460" as="sourcePoint" />
            <mxPoint x="310" y="520" as="targetPoint" />
          </mxGeometry>
        </mxCell>
        <mxCell id="ituplTPOn73s7d8Dikhj-14" value="" style="endArrow=classic;html=1;rounded=0;" edge="1" parent="1" source="ituplTPOn73s7d8Dikhj-16">
          <mxGeometry width="50" height="50" relative="1" as="geometry">
            <mxPoint x="400" y="600" as="sourcePoint" />
            <mxPoint x="400" y="670" as="targetPoint" />
            <Array as="points">
              <mxPoint x="400" y="590" />
            </Array>
          </mxGeometry>
        </mxCell>
        <mxCell id="ituplTPOn73s7d8Dikhj-16" value="AI/ML MODEL&lt;div&gt;TRAINING&lt;/div&gt;" style="rhombus;whiteSpace=wrap;html=1;fillColor=#60a917;fontColor=#ffffff;strokeColor=#2D7600;" vertex="1" parent="1">
          <mxGeometry x="340" y="400" width="120" height="80" as="geometry" />
        </mxCell>
        <mxCell id="ituplTPOn73s7d8Dikhj-18" value="SUPERVISED&lt;div&gt;LEARNING&lt;/div&gt;" style="rounded=0;whiteSpace=wrap;html=1;fillColor=#0050ef;fontColor=#ffffff;strokeColor=#001DBC;" vertex="1" parent="1">
          <mxGeometry x="240" y="520" width="120" height="40" as="geometry" />
        </mxCell>
        <mxCell id="ituplTPOn73s7d8Dikhj-19" value="" style="endArrow=classic;html=1;rounded=0;" edge="1" parent="1">
          <mxGeometry width="50" height="50" relative="1" as="geometry">
            <mxPoint x="430" y="459.9966666666666" as="sourcePoint" />
            <mxPoint x="480" y="513" as="targetPoint" />
          </mxGeometry>
        </mxCell>
        <mxCell id="ituplTPOn73s7d8Dikhj-20" value="UNSUPERVISED LEARNING" style="rounded=0;whiteSpace=wrap;html=1;fillColor=#a20025;fontColor=#ffffff;strokeColor=#6F0000;" vertex="1" parent="1">
          <mxGeometry x="450" y="520" width="120" height="40" as="geometry" />
        </mxCell>
        <mxCell id="ituplTPOn73s7d8Dikhj-24" value="THREAT DETECTION&lt;div&gt;ENGINE&lt;/div&gt;" style="shape=parallelogram;perimeter=parallelogramPerimeter;whiteSpace=wrap;html=1;fixedSize=1;fillColor=#fa6800;fontColor=#000000;strokeColor=#C73500;" vertex="1" parent="1">
          <mxGeometry x="315" y="670" width="165" height="60" as="geometry" />
        </mxCell>
        <mxCell id="ituplTPOn73s7d8Dikhj-25" value="" style="endArrow=classic;html=1;rounded=0;exitX=0.204;exitY=1.013;exitDx=0;exitDy=0;exitPerimeter=0;" edge="1" parent="1" source="ituplTPOn73s7d8Dikhj-24">
          <mxGeometry width="50" height="50" relative="1" as="geometry">
            <mxPoint x="330.02" y="730" as="sourcePoint" />
            <mxPoint x="290" y="830" as="targetPoint" />
          </mxGeometry>
        </mxCell>
        <mxCell id="ituplTPOn73s7d8Dikhj-26" value="" style="endArrow=classic;html=1;rounded=0;exitX=0.364;exitY=1.053;exitDx=0;exitDy=0;exitPerimeter=0;" edge="1" parent="1">
          <mxGeometry width="50" height="50" relative="1" as="geometry">
            <mxPoint x="399.4999999999999" y="730.0000000000001" as="sourcePoint" />
            <mxPoint x="399.9" y="826.82" as="targetPoint" />
          </mxGeometry>
        </mxCell>
        <mxCell id="ituplTPOn73s7d8Dikhj-27" value="" style="endArrow=classic;html=1;rounded=0;exitX=0.711;exitY=1;exitDx=0;exitDy=0;exitPerimeter=0;" edge="1" parent="1" source="ituplTPOn73s7d8Dikhj-24">
          <mxGeometry width="50" height="50" relative="1" as="geometry">
            <mxPoint x="460" y="800" as="sourcePoint" />
            <mxPoint x="490" y="820" as="targetPoint" />
          </mxGeometry>
        </mxCell>
        <mxCell id="ituplTPOn73s7d8Dikhj-28" value="&lt;font style=&quot;color: light-dark(rgb(0, 0, 0), rgb(0, 0, 0));&quot;&gt;REAL TIME&lt;/font&gt;&lt;div&gt;&lt;font style=&quot;color: light-dark(rgb(0, 0, 0), rgb(0, 0, 0));&quot;&gt;MONITORING&lt;/font&gt;&lt;/div&gt;" style="rounded=0;whiteSpace=wrap;html=1;fillColor=#6d8764;fontColor=#ffffff;strokeColor=#3A5431;" vertex="1" parent="1">
          <mxGeometry x="215" y="830" width="100" height="50" as="geometry" />
        </mxCell>
        <mxCell id="ituplTPOn73s7d8Dikhj-29" value="&lt;font style=&quot;color: light-dark(rgb(0, 0, 0), rgb(0, 0, 0));&quot;&gt;PATTERN RECOGNITION&lt;/font&gt;" style="rounded=0;whiteSpace=wrap;html=1;fillColor=#647687;fontColor=#ffffff;strokeColor=#314354;" vertex="1" parent="1">
          <mxGeometry x="345" y="830" width="105" height="50" as="geometry" />
        </mxCell>
        <mxCell id="ituplTPOn73s7d8Dikhj-30" value="&lt;font style=&quot;color: light-dark(rgb(0, 0, 0), rgb(0, 0, 0));&quot;&gt;ANOMALY DETECTION&lt;/font&gt;" style="rounded=0;whiteSpace=wrap;html=1;fillColor=light-dark(#FFCCCC,#FF99FF);strokeColor=#36393d;" vertex="1" parent="1">
          <mxGeometry x="470" y="820" width="110" height="50" as="geometry" />
        </mxCell>
        <mxCell id="ituplTPOn73s7d8Dikhj-31" value="" style="endArrow=classic;html=1;rounded=0;exitX=0.5;exitY=1;exitDx=0;exitDy=0;" edge="1" parent="1" source="ituplTPOn73s7d8Dikhj-29">
          <mxGeometry width="50" height="50" relative="1" as="geometry">
            <mxPoint x="395" y="880" as="sourcePoint" />
            <mxPoint x="398" y="960" as="targetPoint" />
          </mxGeometry>
        </mxCell>
        <mxCell id="ituplTPOn73s7d8Dikhj-33" value="THREAT CLASSIFICATION" style="rhombus;whiteSpace=wrap;html=1;fillColor=#fad7ac;strokeColor=#b46504;" vertex="1" parent="1">
          <mxGeometry x="331.88" y="960" width="131.25" height="80" as="geometry" />
        </mxCell>
        <mxCell id="ituplTPOn73s7d8Dikhj-35" value="" style="endArrow=classic;html=1;rounded=0;" edge="1" parent="1">
          <mxGeometry width="50" height="50" relative="1" as="geometry">
            <mxPoint x="355.472873785641" y="1019.9985135455335" as="sourcePoint" />
            <mxPoint x="315" y="1090.38" as="targetPoint" />
          </mxGeometry>
        </mxCell>
        <mxCell id="ituplTPOn73s7d8Dikhj-41" value="" style="endArrow=classic;html=1;rounded=0;exitX=0.5;exitY=1;exitDx=0;exitDy=0;" edge="1" parent="1" source="ituplTPOn73s7d8Dikhj-33">
          <mxGeometry width="50" height="50" relative="1" as="geometry">
            <mxPoint x="300" y="1150" as="sourcePoint" />
            <mxPoint x="398" y="1110" as="targetPoint" />
          </mxGeometry>
        </mxCell>
        <mxCell id="ituplTPOn73s7d8Dikhj-42" value="LOW RISK" style="rounded=0;whiteSpace=wrap;html=1;fillColor=#a20025;strokeColor=#6F0000;fontColor=#ffffff;" vertex="1" parent="1">
          <mxGeometry x="205" y="1090" width="120" height="30" as="geometry" />
        </mxCell>
        <mxCell id="ituplTPOn73s7d8Dikhj-43" value="MEDIUM RISK" style="rounded=0;whiteSpace=wrap;html=1;fillColor=#f5f5f5;fontColor=#333333;strokeColor=#666666;" vertex="1" parent="1">
          <mxGeometry x="343.13" y="1110" width="120" height="30" as="geometry" />
        </mxCell>
        <mxCell id="ituplTPOn73s7d8Dikhj-44" value="HIGH RISK" style="rounded=0;whiteSpace=wrap;html=1;fillColor=#e1d5e7;strokeColor=#9673a6;" vertex="1" parent="1">
          <mxGeometry x="480" y="1080" width="120" height="40" as="geometry" />
        </mxCell>
        <mxCell id="ituplTPOn73s7d8Dikhj-48" value="" style="endArrow=classic;html=1;rounded=0;exitX=0.796;exitY=0.655;exitDx=0;exitDy=0;exitPerimeter=0;" edge="1" parent="1" source="ituplTPOn73s7d8Dikhj-33">
          <mxGeometry width="50" height="50" relative="1" as="geometry">
            <mxPoint x="300" y="1150" as="sourcePoint" />
            <mxPoint x="520" y="1070" as="targetPoint" />
          </mxGeometry>
        </mxCell>
        <mxCell id="ituplTPOn73s7d8Dikhj-49" value="" style="endArrow=classic;html=1;rounded=0;exitX=0.5;exitY=1;exitDx=0;exitDy=0;" edge="1" parent="1" source="ituplTPOn73s7d8Dikhj-43">
          <mxGeometry width="50" height="50" relative="1" as="geometry">
            <mxPoint x="300" y="1210" as="sourcePoint" />
            <mxPoint x="400" y="1210" as="targetPoint" />
          </mxGeometry>
        </mxCell>
        <mxCell id="ituplTPOn73s7d8Dikhj-54" value="RESPONSE" style="shape=document;whiteSpace=wrap;html=1;boundedLbl=1;fillColor=#e6d0de;gradientColor=#d5739d;strokeColor=#996185;" vertex="1" parent="1">
          <mxGeometry x="340" y="1210" width="120" height="80" as="geometry" />
        </mxCell>
        <mxCell id="ituplTPOn73s7d8Dikhj-55" value="" style="endArrow=classic;html=1;rounded=0;exitX=0.477;exitY=0.91;exitDx=0;exitDy=0;exitPerimeter=0;" edge="1" parent="1" source="ituplTPOn73s7d8Dikhj-54">
          <mxGeometry width="50" height="50" relative="1" as="geometry">
            <mxPoint x="320" y="1310" as="sourcePoint" />
            <mxPoint x="397" y="1360" as="targetPoint" />
          </mxGeometry>
        </mxCell>
        <mxCell id="ituplTPOn73s7d8Dikhj-57" value="FEEDBACK&lt;div&gt;&lt;br&gt;&lt;/div&gt;" style="shape=note;whiteSpace=wrap;html=1;backgroundOutline=1;darkOpacity=0.05;fillColor=light-dark(#A20025,#CC0066);strokeColor=#6F0000;fontColor=#ffffff;" vertex="1" parent="1">
          <mxGeometry x="363.13" y="1360" width="80" height="100" as="geometry" />
        </mxCell>
        <mxCell id="ituplTPOn73s7d8Dikhj-58" value="" style="endArrow=classic;html=1;rounded=0;exitX=0.5;exitY=1;exitDx=0;exitDy=0;exitPerimeter=0;" edge="1" parent="1" source="ituplTPOn73s7d8Dikhj-57">
          <mxGeometry width="50" height="50" relative="1" as="geometry">
            <mxPoint x="320" y="1450" as="sourcePoint" />
            <mxPoint x="400" y="1520" as="targetPoint" />
          </mxGeometry>
        </mxCell>
        <mxCell id="ituplTPOn73s7d8Dikhj-59" value="END" style="ellipse;whiteSpace=wrap;html=1;fillColor=light-dark(#FFFFFF,#B5739D);" vertex="1" parent="1">
          <mxGeometry x="340" y="1520" width="130" height="80" as="geometry" />
        </mxCell>
      </root>
    </mxGraphModel>
  </diagram>
</mxfile>
